<mxfile host="app.diagrams.net" modified="2023-10-25T05:29:47.822Z" agent="Mozilla/5.0 (Windows NT 10.0; Win64; x64) AppleWebKit/537.36 (KHTML, like Gecko) Chrome/118.0.0.0 Safari/537.36" etag="PR3vndBWybieKlINL7Xa" version="22.0.7" type="github">
  <diagram name="第 1 页" id="WGilPYq7rBUbruQuQdFH">
    <mxGraphModel dx="1841" dy="525" grid="1" gridSize="10" guides="1" tooltips="1" connect="1" arrows="1" fold="1" page="1" pageScale="1" pageWidth="827" pageHeight="1169" math="0" shadow="0">
      <root>
        <mxCell id="0" />
        <mxCell id="1" parent="0" />
        <mxCell id="3CuMKUdmIOEF1506szGW-6" value="" style="edgeStyle=orthogonalEdgeStyle;orthogonalLoop=1;jettySize=auto;html=1;entryX=0;entryY=0.5;entryDx=0;entryDy=0;curved=1;" parent="1" source="3CuMKUdmIOEF1506szGW-1" target="3CuMKUdmIOEF1506szGW-2" edge="1">
          <mxGeometry relative="1" as="geometry" />
        </mxCell>
        <mxCell id="3CuMKUdmIOEF1506szGW-8" style="edgeStyle=orthogonalEdgeStyle;orthogonalLoop=1;jettySize=auto;html=1;entryX=0;entryY=0.5;entryDx=0;entryDy=0;curved=1;" parent="1" source="3CuMKUdmIOEF1506szGW-1" target="3CuMKUdmIOEF1506szGW-7" edge="1">
          <mxGeometry relative="1" as="geometry" />
        </mxCell>
        <mxCell id="3CuMKUdmIOEF1506szGW-13" style="edgeStyle=orthogonalEdgeStyle;rounded=0;orthogonalLoop=1;jettySize=auto;html=1;exitX=0.5;exitY=1;exitDx=0;exitDy=0;" parent="1" source="3CuMKUdmIOEF1506szGW-1" target="3CuMKUdmIOEF1506szGW-9" edge="1">
          <mxGeometry relative="1" as="geometry">
            <Array as="points">
              <mxPoint x="300" y="200" />
              <mxPoint x="140" y="200" />
            </Array>
          </mxGeometry>
        </mxCell>
        <mxCell id="3CuMKUdmIOEF1506szGW-14" style="edgeStyle=orthogonalEdgeStyle;rounded=0;orthogonalLoop=1;jettySize=auto;html=1;entryX=0.5;entryY=0;entryDx=0;entryDy=0;" parent="1" target="3CuMKUdmIOEF1506szGW-11" edge="1">
          <mxGeometry relative="1" as="geometry">
            <mxPoint x="300" y="130" as="sourcePoint" />
            <mxPoint x="450" y="210" as="targetPoint" />
            <Array as="points">
              <mxPoint x="300" y="200" />
              <mxPoint x="460" y="200" />
            </Array>
          </mxGeometry>
        </mxCell>
        <mxCell id="3CuMKUdmIOEF1506szGW-15" value="&lt;font style=&quot;font-size: 14px;&quot;&gt;拆单&lt;/font&gt;" style="edgeLabel;html=1;align=center;verticalAlign=middle;resizable=0;points=[];" parent="3CuMKUdmIOEF1506szGW-14" vertex="1" connectable="0">
          <mxGeometry x="-0.8553" relative="1" as="geometry">
            <mxPoint y="4" as="offset" />
          </mxGeometry>
        </mxCell>
        <mxCell id="3CuMKUdmIOEF1506szGW-1" value="&lt;font style=&quot;font-size: 14px;&quot;&gt;原始订单 1&lt;/font&gt;" style="rounded=1;whiteSpace=wrap;html=1;" parent="1" vertex="1">
          <mxGeometry x="240" y="100" width="120" height="30" as="geometry" />
        </mxCell>
        <mxCell id="3CuMKUdmIOEF1506szGW-2" value="&lt;font style=&quot;font-size: 14px;&quot;&gt;店子 A 7个&lt;/font&gt;" style="rounded=1;whiteSpace=wrap;html=1;" parent="1" vertex="1">
          <mxGeometry x="570" y="60" width="120" height="30" as="geometry" />
        </mxCell>
        <mxCell id="3CuMKUdmIOEF1506szGW-7" value="&lt;font style=&quot;font-size: 14px;&quot;&gt;店子 B 9个&lt;/font&gt;" style="rounded=1;whiteSpace=wrap;html=1;" parent="1" vertex="1">
          <mxGeometry x="570" y="130" width="120" height="30" as="geometry" />
        </mxCell>
        <mxCell id="3CuMKUdmIOEF1506szGW-18" style="edgeStyle=orthogonalEdgeStyle;orthogonalLoop=1;jettySize=auto;html=1;curved=1;" parent="1" source="3CuMKUdmIOEF1506szGW-9" target="3CuMKUdmIOEF1506szGW-16" edge="1">
          <mxGeometry relative="1" as="geometry" />
        </mxCell>
        <mxCell id="3CuMKUdmIOEF1506szGW-24" style="edgeStyle=orthogonalEdgeStyle;orthogonalLoop=1;jettySize=auto;html=1;entryX=1;entryY=0.5;entryDx=0;entryDy=0;curved=1;" parent="1" source="3CuMKUdmIOEF1506szGW-9" target="3CuMKUdmIOEF1506szGW-23" edge="1">
          <mxGeometry relative="1" as="geometry" />
        </mxCell>
        <mxCell id="3CuMKUdmIOEF1506szGW-27" style="edgeStyle=orthogonalEdgeStyle;rounded=0;orthogonalLoop=1;jettySize=auto;html=1;entryX=0.5;entryY=0;entryDx=0;entryDy=0;" parent="1" source="3CuMKUdmIOEF1506szGW-9" target="3CuMKUdmIOEF1506szGW-26" edge="1">
          <mxGeometry relative="1" as="geometry" />
        </mxCell>
        <mxCell id="3CuMKUdmIOEF1506szGW-9" value="&lt;font style=&quot;font-size: 14px;&quot;&gt;订单 2&lt;/font&gt;" style="rounded=1;whiteSpace=wrap;html=1;" parent="1" vertex="1">
          <mxGeometry x="80" y="250" width="120" height="30" as="geometry" />
        </mxCell>
        <mxCell id="3CuMKUdmIOEF1506szGW-21" style="edgeStyle=orthogonalEdgeStyle;orthogonalLoop=1;jettySize=auto;html=1;entryX=0;entryY=0.5;entryDx=0;entryDy=0;curved=1;" parent="1" source="3CuMKUdmIOEF1506szGW-11" target="3CuMKUdmIOEF1506szGW-19" edge="1">
          <mxGeometry relative="1" as="geometry" />
        </mxCell>
        <mxCell id="3CuMKUdmIOEF1506szGW-22" style="edgeStyle=orthogonalEdgeStyle;orthogonalLoop=1;jettySize=auto;html=1;entryX=0;entryY=0.5;entryDx=0;entryDy=0;curved=1;" parent="1" source="3CuMKUdmIOEF1506szGW-11" target="3CuMKUdmIOEF1506szGW-20" edge="1">
          <mxGeometry relative="1" as="geometry" />
        </mxCell>
        <mxCell id="3CuMKUdmIOEF1506szGW-11" value="&lt;font style=&quot;font-size: 14px;&quot;&gt;订单 3&lt;/font&gt;" style="rounded=1;whiteSpace=wrap;html=1;" parent="1" vertex="1">
          <mxGeometry x="400" y="250" width="120" height="30" as="geometry" />
        </mxCell>
        <mxCell id="3CuMKUdmIOEF1506szGW-16" value="&lt;font style=&quot;font-size: 14px;&quot;&gt;店子 A 2个&lt;/font&gt;" style="rounded=1;whiteSpace=wrap;html=1;" parent="1" vertex="1">
          <mxGeometry x="-100" y="220" width="120" height="30" as="geometry" />
        </mxCell>
        <mxCell id="3CuMKUdmIOEF1506szGW-19" value="&lt;font style=&quot;font-size: 14px;&quot;&gt;店子 A 5 个&lt;/font&gt;" style="rounded=1;whiteSpace=wrap;html=1;" parent="1" vertex="1">
          <mxGeometry x="600" y="220" width="120" height="30" as="geometry" />
        </mxCell>
        <mxCell id="3CuMKUdmIOEF1506szGW-20" value="&lt;font style=&quot;font-size: 14px;&quot;&gt;店子 B 5个&lt;/font&gt;" style="rounded=1;whiteSpace=wrap;html=1;" parent="1" vertex="1">
          <mxGeometry x="600" y="270" width="120" height="30" as="geometry" />
        </mxCell>
        <mxCell id="3CuMKUdmIOEF1506szGW-23" value="&lt;font style=&quot;font-size: 14px;&quot;&gt;店子 B 4个&lt;/font&gt;" style="rounded=1;whiteSpace=wrap;html=1;" parent="1" vertex="1">
          <mxGeometry x="-100" y="280" width="120" height="30" as="geometry" />
        </mxCell>
        <mxCell id="3CuMKUdmIOEF1506szGW-28" style="edgeStyle=orthogonalEdgeStyle;rounded=0;orthogonalLoop=1;jettySize=auto;html=1;entryX=0.5;entryY=0;entryDx=0;entryDy=0;exitX=0.5;exitY=1;exitDx=0;exitDy=0;" parent="1" source="3CuMKUdmIOEF1506szGW-25" target="3CuMKUdmIOEF1506szGW-26" edge="1">
          <mxGeometry relative="1" as="geometry">
            <Array as="points">
              <mxPoint x="300" y="300" />
              <mxPoint x="140" y="300" />
            </Array>
          </mxGeometry>
        </mxCell>
        <mxCell id="3CuMKUdmIOEF1506szGW-40" value="&lt;font style=&quot;font-size: 14px;&quot;&gt;合单&lt;/font&gt;" style="edgeLabel;html=1;align=center;verticalAlign=middle;resizable=0;points=[];" parent="3CuMKUdmIOEF1506szGW-28" vertex="1" connectable="0">
          <mxGeometry x="0.6391" y="-2" relative="1" as="geometry">
            <mxPoint as="offset" />
          </mxGeometry>
        </mxCell>
        <mxCell id="3CuMKUdmIOEF1506szGW-43" style="edgeStyle=orthogonalEdgeStyle;orthogonalLoop=1;jettySize=auto;html=1;entryX=0.5;entryY=0;entryDx=0;entryDy=0;curved=1;exitX=1;exitY=0.5;exitDx=0;exitDy=0;" parent="1" source="3CuMKUdmIOEF1506szGW-25" target="3CuMKUdmIOEF1506szGW-30" edge="1">
          <mxGeometry relative="1" as="geometry" />
        </mxCell>
        <mxCell id="3CuMKUdmIOEF1506szGW-25" value="&lt;font style=&quot;font-size: 14px;&quot;&gt;订单 4&lt;/font&gt;" style="rounded=1;whiteSpace=wrap;html=1;" parent="1" vertex="1">
          <mxGeometry x="240" y="250" width="120" height="30" as="geometry" />
        </mxCell>
        <mxCell id="3CuMKUdmIOEF1506szGW-37" style="edgeStyle=orthogonalEdgeStyle;orthogonalLoop=1;jettySize=auto;html=1;entryX=0.446;entryY=0.038;entryDx=0;entryDy=0;entryPerimeter=0;curved=1;exitX=0.5;exitY=1;exitDx=0;exitDy=0;" parent="1" source="3CuMKUdmIOEF1506szGW-26" target="3CuMKUdmIOEF1506szGW-32" edge="1">
          <mxGeometry relative="1" as="geometry" />
        </mxCell>
        <mxCell id="3CuMKUdmIOEF1506szGW-38" style="edgeStyle=orthogonalEdgeStyle;orthogonalLoop=1;jettySize=auto;html=1;curved=1;" parent="1" source="3CuMKUdmIOEF1506szGW-26" target="3CuMKUdmIOEF1506szGW-33" edge="1">
          <mxGeometry relative="1" as="geometry" />
        </mxCell>
        <mxCell id="3CuMKUdmIOEF1506szGW-39" style="edgeStyle=orthogonalEdgeStyle;orthogonalLoop=1;jettySize=auto;html=1;exitX=0.5;exitY=1;exitDx=0;exitDy=0;curved=1;" parent="1" source="3CuMKUdmIOEF1506szGW-26" target="3CuMKUdmIOEF1506szGW-35" edge="1">
          <mxGeometry relative="1" as="geometry" />
        </mxCell>
        <mxCell id="3CuMKUdmIOEF1506szGW-26" value="&lt;font style=&quot;font-size: 14px;&quot;&gt;订单 5&lt;/font&gt;" style="rounded=1;whiteSpace=wrap;html=1;" parent="1" vertex="1">
          <mxGeometry x="80" y="360" width="120" height="30" as="geometry" />
        </mxCell>
        <mxCell id="3CuMKUdmIOEF1506szGW-30" value="&lt;font style=&quot;font-size: 14px;&quot;&gt;店子 C 5 个&lt;/font&gt;" style="rounded=1;whiteSpace=wrap;html=1;" parent="1" vertex="1">
          <mxGeometry x="340" y="360" width="120" height="30" as="geometry" />
        </mxCell>
        <mxCell id="3CuMKUdmIOEF1506szGW-32" value="&lt;font style=&quot;font-size: 14px;&quot;&gt;店子 A 2个&lt;/font&gt;" style="rounded=1;whiteSpace=wrap;html=1;" parent="1" vertex="1">
          <mxGeometry x="-70" y="440" width="120" height="30" as="geometry" />
        </mxCell>
        <mxCell id="3CuMKUdmIOEF1506szGW-33" value="&lt;font style=&quot;font-size: 14px;&quot;&gt;店子 B 4个&lt;/font&gt;" style="rounded=1;whiteSpace=wrap;html=1;" parent="1" vertex="1">
          <mxGeometry x="80" y="440" width="120" height="30" as="geometry" />
        </mxCell>
        <mxCell id="3CuMKUdmIOEF1506szGW-35" value="&lt;font style=&quot;font-size: 14px;&quot;&gt;店子 C 5 个&lt;/font&gt;" style="rounded=1;whiteSpace=wrap;html=1;" parent="1" vertex="1">
          <mxGeometry x="230" y="440" width="120" height="30" as="geometry" />
        </mxCell>
        <mxCell id="YBp7s0G2lhW00qwg8DVI-3" value="" style="edgeStyle=orthogonalEdgeStyle;rounded=0;orthogonalLoop=1;jettySize=auto;html=1;" parent="1" source="YBp7s0G2lhW00qwg8DVI-1" target="YBp7s0G2lhW00qwg8DVI-2" edge="1">
          <mxGeometry relative="1" as="geometry" />
        </mxCell>
        <mxCell id="YBp7s0G2lhW00qwg8DVI-1" value="&lt;font style=&quot;font-size: 16px;&quot;&gt;Order ID&lt;/font&gt;" style="rounded=1;whiteSpace=wrap;html=1;" parent="1" vertex="1">
          <mxGeometry x="-395" y="550" width="110" height="40" as="geometry" />
        </mxCell>
        <mxCell id="YBp7s0G2lhW00qwg8DVI-5" style="edgeStyle=orthogonalEdgeStyle;rounded=0;orthogonalLoop=1;jettySize=auto;html=1;entryX=0.5;entryY=0;entryDx=0;entryDy=0;" parent="1" source="YBp7s0G2lhW00qwg8DVI-2" target="YBp7s0G2lhW00qwg8DVI-4" edge="1">
          <mxGeometry relative="1" as="geometry" />
        </mxCell>
        <mxCell id="YBp7s0G2lhW00qwg8DVI-2" value="&lt;font style=&quot;font-size: 16px;&quot;&gt;找打当前订单下所有原子&lt;/font&gt;" style="whiteSpace=wrap;html=1;rounded=1;" parent="1" vertex="1">
          <mxGeometry x="-400" y="620" width="120" height="50" as="geometry" />
        </mxCell>
        <mxCell id="YBp7s0G2lhW00qwg8DVI-10" style="edgeStyle=orthogonalEdgeStyle;rounded=0;orthogonalLoop=1;jettySize=auto;html=1;" parent="1" source="YBp7s0G2lhW00qwg8DVI-4" target="YBp7s0G2lhW00qwg8DVI-6" edge="1">
          <mxGeometry relative="1" as="geometry" />
        </mxCell>
        <mxCell id="YBp7s0G2lhW00qwg8DVI-4" value="&lt;font style=&quot;font-size: 16px;&quot;&gt;找到当前订单下所有店子&lt;/font&gt;" style="whiteSpace=wrap;html=1;rounded=1;" parent="1" vertex="1">
          <mxGeometry x="-400" y="700" width="120" height="50" as="geometry" />
        </mxCell>
        <mxCell id="YBp7s0G2lhW00qwg8DVI-11" style="edgeStyle=orthogonalEdgeStyle;rounded=0;orthogonalLoop=1;jettySize=auto;html=1;" parent="1" source="YBp7s0G2lhW00qwg8DVI-6" target="YBp7s0G2lhW00qwg8DVI-8" edge="1">
          <mxGeometry relative="1" as="geometry" />
        </mxCell>
        <mxCell id="YBp7s0G2lhW00qwg8DVI-6" value="&lt;font style=&quot;font-size: 16px;&quot;&gt;找到当前订单对应的所有平台店铺单号&lt;/font&gt;" style="rounded=1;whiteSpace=wrap;html=1;" parent="1" vertex="1">
          <mxGeometry x="-400" y="780" width="120" height="70" as="geometry" />
        </mxCell>
        <mxCell id="YBp7s0G2lhW00qwg8DVI-27" style="edgeStyle=orthogonalEdgeStyle;rounded=0;orthogonalLoop=1;jettySize=auto;html=1;" parent="1" source="YBp7s0G2lhW00qwg8DVI-8" target="YBp7s0G2lhW00qwg8DVI-20" edge="1">
          <mxGeometry relative="1" as="geometry" />
        </mxCell>
        <mxCell id="YBp7s0G2lhW00qwg8DVI-8" value="&lt;font style=&quot;font-size: 16px;&quot;&gt;用店铺单号去调平台接口获取最新的订单和店子数据&lt;/font&gt;" style="rounded=1;whiteSpace=wrap;html=1;" parent="1" vertex="1">
          <mxGeometry x="-412.5" y="880" width="145" height="70" as="geometry" />
        </mxCell>
        <mxCell id="YBp7s0G2lhW00qwg8DVI-24" value="" style="edgeStyle=orthogonalEdgeStyle;rounded=0;orthogonalLoop=1;jettySize=auto;html=1;" parent="1" source="YBp7s0G2lhW00qwg8DVI-20" target="YBp7s0G2lhW00qwg8DVI-23" edge="1">
          <mxGeometry relative="1" as="geometry" />
        </mxCell>
        <mxCell id="YBp7s0G2lhW00qwg8DVI-20" value="&lt;span style=&quot;font-size: 16px;&quot;&gt;用平台返回的订单数据均摊到店子记录&lt;/span&gt;" style="rounded=1;whiteSpace=wrap;html=1;strokeWidth=2;fillStyle=auto;" parent="1" vertex="1">
          <mxGeometry x="-400" y="980" width="120" height="60" as="geometry" />
        </mxCell>
        <mxCell id="YBp7s0G2lhW00qwg8DVI-26" value="" style="edgeStyle=orthogonalEdgeStyle;rounded=0;orthogonalLoop=1;jettySize=auto;html=1;" parent="1" source="YBp7s0G2lhW00qwg8DVI-23" target="YBp7s0G2lhW00qwg8DVI-25" edge="1">
          <mxGeometry relative="1" as="geometry" />
        </mxCell>
        <mxCell id="YBp7s0G2lhW00qwg8DVI-23" value="&lt;span style=&quot;font-size: 16px;&quot;&gt;店子均摊到原子&lt;/span&gt;" style="rounded=1;whiteSpace=wrap;html=1;strokeWidth=2;fillStyle=auto;" parent="1" vertex="1">
          <mxGeometry x="-400" y="1080" width="120" height="60" as="geometry" />
        </mxCell>
        <mxCell id="YBp7s0G2lhW00qwg8DVI-25" value="&lt;span style=&quot;font-size: 16px;&quot;&gt;原子金额汇总&lt;br&gt;更新订单&lt;/span&gt;" style="rounded=1;whiteSpace=wrap;html=1;strokeWidth=2;fillStyle=auto;" parent="1" vertex="1">
          <mxGeometry x="-400" y="1169" width="120" height="60" as="geometry" />
        </mxCell>
        <mxCell id="X6u3JwX0tcUtd_kV6TCN-3" value="" style="edgeStyle=orthogonalEdgeStyle;rounded=0;orthogonalLoop=1;jettySize=auto;html=1;" parent="1" source="X6u3JwX0tcUtd_kV6TCN-1" target="X6u3JwX0tcUtd_kV6TCN-2" edge="1">
          <mxGeometry relative="1" as="geometry" />
        </mxCell>
        <mxCell id="X6u3JwX0tcUtd_kV6TCN-1" value="&lt;font style=&quot;font-size: 14px;&quot;&gt;反更新目标 Order ID&lt;/font&gt;" style="rounded=1;whiteSpace=wrap;html=1;" parent="1" vertex="1">
          <mxGeometry x="-570" y="1320" width="150" height="50" as="geometry" />
        </mxCell>
        <mxCell id="X6u3JwX0tcUtd_kV6TCN-5" style="edgeStyle=orthogonalEdgeStyle;rounded=0;orthogonalLoop=1;jettySize=auto;html=1;" parent="1" source="X6u3JwX0tcUtd_kV6TCN-2" target="X6u3JwX0tcUtd_kV6TCN-4" edge="1">
          <mxGeometry relative="1" as="geometry" />
        </mxCell>
        <mxCell id="X6u3JwX0tcUtd_kV6TCN-2" value="&lt;span style=&quot;font-size: 14px;&quot;&gt;找到该订单下所有店子记录&lt;br&gt;&lt;/span&gt;" style="rounded=1;whiteSpace=wrap;html=1;" parent="1" vertex="1">
          <mxGeometry x="-585" y="1400" width="180" height="50" as="geometry" />
        </mxCell>
        <mxCell id="X6u3JwX0tcUtd_kV6TCN-8" style="edgeStyle=orthogonalEdgeStyle;rounded=0;orthogonalLoop=1;jettySize=auto;html=1;" parent="1" source="X6u3JwX0tcUtd_kV6TCN-4" target="X6u3JwX0tcUtd_kV6TCN-6" edge="1">
          <mxGeometry relative="1" as="geometry" />
        </mxCell>
        <mxCell id="X6u3JwX0tcUtd_kV6TCN-4" value="&lt;span style=&quot;font-size: 14px;&quot;&gt;过滤这些店子记录得到不重复的原始订单ID集合&lt;br&gt;&lt;/span&gt;" style="rounded=1;whiteSpace=wrap;html=1;" parent="1" vertex="1">
          <mxGeometry x="-585" y="1480" width="180" height="50" as="geometry" />
        </mxCell>
        <mxCell id="X6u3JwX0tcUtd_kV6TCN-10" style="edgeStyle=orthogonalEdgeStyle;rounded=0;orthogonalLoop=1;jettySize=auto;html=1;entryX=0.5;entryY=0;entryDx=0;entryDy=0;" parent="1" source="X6u3JwX0tcUtd_kV6TCN-6" target="X6u3JwX0tcUtd_kV6TCN-9" edge="1">
          <mxGeometry relative="1" as="geometry" />
        </mxCell>
        <mxCell id="X6u3JwX0tcUtd_kV6TCN-6" value="&lt;span style=&quot;font-size: 14px;&quot;&gt;找到每一个原始订单中的店子记录&lt;br&gt;&lt;/span&gt;" style="rounded=1;whiteSpace=wrap;html=1;" parent="1" vertex="1">
          <mxGeometry x="-585" y="1560" width="180" height="50" as="geometry" />
        </mxCell>
        <mxCell id="X6u3JwX0tcUtd_kV6TCN-12" style="edgeStyle=orthogonalEdgeStyle;rounded=0;orthogonalLoop=1;jettySize=auto;html=1;" parent="1" source="X6u3JwX0tcUtd_kV6TCN-9" target="X6u3JwX0tcUtd_kV6TCN-11" edge="1">
          <mxGeometry relative="1" as="geometry" />
        </mxCell>
        <mxCell id="X6u3JwX0tcUtd_kV6TCN-9" value="&lt;span style=&quot;font-size: 14px;&quot;&gt;找到每一个店子记录对应的原子记录&lt;br&gt;&lt;/span&gt;" style="rounded=1;whiteSpace=wrap;html=1;" parent="1" vertex="1">
          <mxGeometry x="-585" y="1640" width="180" height="50" as="geometry" />
        </mxCell>
        <mxCell id="X6u3JwX0tcUtd_kV6TCN-14" style="edgeStyle=orthogonalEdgeStyle;rounded=0;orthogonalLoop=1;jettySize=auto;html=1;" parent="1" source="X6u3JwX0tcUtd_kV6TCN-11" target="X6u3JwX0tcUtd_kV6TCN-13" edge="1">
          <mxGeometry relative="1" as="geometry" />
        </mxCell>
        <mxCell id="X6u3JwX0tcUtd_kV6TCN-11" value="&lt;span style=&quot;font-size: 14px;&quot;&gt;调用平台接口获取金额数据&lt;br&gt;&lt;/span&gt;" style="rounded=1;whiteSpace=wrap;html=1;" parent="1" vertex="1">
          <mxGeometry x="-585" y="1720" width="180" height="50" as="geometry" />
        </mxCell>
        <mxCell id="X6u3JwX0tcUtd_kV6TCN-15" style="edgeStyle=orthogonalEdgeStyle;rounded=0;orthogonalLoop=1;jettySize=auto;html=1;entryX=1;entryY=0.25;entryDx=0;entryDy=0;" parent="1" source="X6u3JwX0tcUtd_kV6TCN-13" target="X6u3JwX0tcUtd_kV6TCN-6" edge="1">
          <mxGeometry relative="1" as="geometry">
            <Array as="points">
              <mxPoint x="-340" y="1820" />
              <mxPoint x="-340" y="1573" />
            </Array>
          </mxGeometry>
        </mxCell>
        <mxCell id="X6u3JwX0tcUtd_kV6TCN-22" value="&lt;font style=&quot;font-size: 14px;&quot;&gt;均摊&lt;/font&gt;" style="edgeLabel;html=1;align=center;verticalAlign=middle;resizable=0;points=[];" parent="X6u3JwX0tcUtd_kV6TCN-15" vertex="1" connectable="0">
          <mxGeometry x="-0.1908" y="-1" relative="1" as="geometry">
            <mxPoint as="offset" />
          </mxGeometry>
        </mxCell>
        <mxCell id="X6u3JwX0tcUtd_kV6TCN-17" style="edgeStyle=orthogonalEdgeStyle;rounded=0;orthogonalLoop=1;jettySize=auto;html=1;" parent="1" source="X6u3JwX0tcUtd_kV6TCN-13" target="X6u3JwX0tcUtd_kV6TCN-16" edge="1">
          <mxGeometry relative="1" as="geometry" />
        </mxCell>
        <mxCell id="X6u3JwX0tcUtd_kV6TCN-13" value="&lt;span style=&quot;font-size: 14px;&quot;&gt;将获取到的数据均摊到对应的店子记录&lt;br&gt;&lt;/span&gt;" style="rounded=1;whiteSpace=wrap;html=1;" parent="1" vertex="1">
          <mxGeometry x="-585" y="1800" width="180" height="50" as="geometry" />
        </mxCell>
        <mxCell id="X6u3JwX0tcUtd_kV6TCN-18" style="edgeStyle=orthogonalEdgeStyle;rounded=0;orthogonalLoop=1;jettySize=auto;html=1;entryX=1;entryY=0.5;entryDx=0;entryDy=0;" parent="1" source="X6u3JwX0tcUtd_kV6TCN-16" target="X6u3JwX0tcUtd_kV6TCN-9" edge="1">
          <mxGeometry relative="1" as="geometry">
            <Array as="points">
              <mxPoint x="-300" y="1910" />
              <mxPoint x="-300" y="1665" />
            </Array>
          </mxGeometry>
        </mxCell>
        <mxCell id="X6u3JwX0tcUtd_kV6TCN-23" value="&lt;font style=&quot;font-size: 14px;&quot;&gt;均摊&lt;/font&gt;" style="edgeLabel;html=1;align=center;verticalAlign=middle;resizable=0;points=[];" parent="X6u3JwX0tcUtd_kV6TCN-18" vertex="1" connectable="0">
          <mxGeometry x="-0.2705" y="-2" relative="1" as="geometry">
            <mxPoint as="offset" />
          </mxGeometry>
        </mxCell>
        <mxCell id="X6u3JwX0tcUtd_kV6TCN-20" style="edgeStyle=orthogonalEdgeStyle;rounded=0;orthogonalLoop=1;jettySize=auto;html=1;" parent="1" source="X6u3JwX0tcUtd_kV6TCN-16" target="X6u3JwX0tcUtd_kV6TCN-19" edge="1">
          <mxGeometry relative="1" as="geometry" />
        </mxCell>
        <mxCell id="X6u3JwX0tcUtd_kV6TCN-16" value="&lt;span style=&quot;font-size: 14px;&quot;&gt;从店子记录上均摊到每个店子对应的原子记录&lt;br&gt;&lt;/span&gt;" style="rounded=1;whiteSpace=wrap;html=1;" parent="1" vertex="1">
          <mxGeometry x="-585" y="1880" width="180" height="50" as="geometry" />
        </mxCell>
        <mxCell id="X6u3JwX0tcUtd_kV6TCN-21" style="edgeStyle=orthogonalEdgeStyle;rounded=0;orthogonalLoop=1;jettySize=auto;html=1;entryX=1;entryY=0.5;entryDx=0;entryDy=0;" parent="1" target="X6u3JwX0tcUtd_kV6TCN-1" edge="1">
          <mxGeometry relative="1" as="geometry">
            <mxPoint x="-475" y="1985" as="sourcePoint" />
            <mxPoint x="-490" y="1345" as="targetPoint" />
            <Array as="points">
              <mxPoint x="-260" y="1985" />
              <mxPoint x="-260" y="1345" />
            </Array>
          </mxGeometry>
        </mxCell>
        <mxCell id="X6u3JwX0tcUtd_kV6TCN-24" value="&lt;font style=&quot;font-size: 14px;&quot;&gt;累加更新订单&lt;/font&gt;" style="edgeLabel;html=1;align=center;verticalAlign=middle;resizable=0;points=[];" parent="X6u3JwX0tcUtd_kV6TCN-21" vertex="1" connectable="0">
          <mxGeometry x="-0.5421" y="-2" relative="1" as="geometry">
            <mxPoint as="offset" />
          </mxGeometry>
        </mxCell>
        <mxCell id="X6u3JwX0tcUtd_kV6TCN-19" value="&lt;span style=&quot;font-size: 14px;&quot;&gt;原子记录金额累加更新到目标订单&lt;br&gt;&lt;/span&gt;" style="rounded=1;whiteSpace=wrap;html=1;" parent="1" vertex="1">
          <mxGeometry x="-585" y="1960" width="180" height="50" as="geometry" />
        </mxCell>
        <mxCell id="UdNGzA2sQEK_ZWHHFU8I-1" value="" style="rounded=1;whiteSpace=wrap;html=1;fillColor=#f9f7ed;strokeColor=#36393d;" vertex="1" parent="1">
          <mxGeometry x="-650" y="2080" width="440" height="60" as="geometry" />
        </mxCell>
        <mxCell id="UdNGzA2sQEK_ZWHHFU8I-2" value="&lt;font style=&quot;font-size: 18px;&quot;&gt;订单&lt;/font&gt;" style="text;html=1;strokeColor=none;fillColor=none;align=center;verticalAlign=middle;whiteSpace=wrap;rounded=0;" vertex="1" parent="1">
          <mxGeometry x="-640" y="2100" width="60" height="20" as="geometry" />
        </mxCell>
        <mxCell id="UdNGzA2sQEK_ZWHHFU8I-9" style="edgeStyle=orthogonalEdgeStyle;rounded=0;orthogonalLoop=1;jettySize=auto;html=1;strokeWidth=2;" edge="1" parent="1" source="UdNGzA2sQEK_ZWHHFU8I-3" target="UdNGzA2sQEK_ZWHHFU8I-5">
          <mxGeometry relative="1" as="geometry" />
        </mxCell>
        <mxCell id="UdNGzA2sQEK_ZWHHFU8I-18" value="&lt;font style=&quot;font-size: 14px;&quot;&gt;均摊&lt;/font&gt;" style="edgeLabel;html=1;align=center;verticalAlign=middle;resizable=0;points=[];" vertex="1" connectable="0" parent="UdNGzA2sQEK_ZWHHFU8I-9">
          <mxGeometry x="0.0863" y="-1" relative="1" as="geometry">
            <mxPoint as="offset" />
          </mxGeometry>
        </mxCell>
        <mxCell id="UdNGzA2sQEK_ZWHHFU8I-3" value="&lt;font style=&quot;font-size: 14px;&quot;&gt;部分字段&lt;/font&gt;" style="rounded=1;whiteSpace=wrap;html=1;fillColor=#ffff88;strokeColor=#36393d;" vertex="1" parent="1">
          <mxGeometry x="-575" y="2092.5" width="140" height="35" as="geometry" />
        </mxCell>
        <mxCell id="UdNGzA2sQEK_ZWHHFU8I-4" value="&lt;font style=&quot;font-size: 14px;&quot;&gt;部分字段&lt;/font&gt;" style="rounded=1;whiteSpace=wrap;html=1;fillColor=#cdeb8b;strokeColor=#36393d;" vertex="1" parent="1">
          <mxGeometry x="-390" y="2092.5" width="140" height="35" as="geometry" />
        </mxCell>
        <mxCell id="UdNGzA2sQEK_ZWHHFU8I-5" value="" style="rounded=1;whiteSpace=wrap;html=1;fillColor=#f9f7ed;strokeColor=#36393d;" vertex="1" parent="1">
          <mxGeometry x="-650" y="2210" width="290" height="40" as="geometry" />
        </mxCell>
        <mxCell id="UdNGzA2sQEK_ZWHHFU8I-6" value="&lt;font style=&quot;font-size: 18px;&quot;&gt;店子&lt;/font&gt;" style="text;html=1;strokeColor=none;fillColor=none;align=center;verticalAlign=middle;whiteSpace=wrap;rounded=0;" vertex="1" parent="1">
          <mxGeometry x="-645" y="2200" width="60" height="20" as="geometry" />
        </mxCell>
        <mxCell id="UdNGzA2sQEK_ZWHHFU8I-10" value="" style="rounded=1;whiteSpace=wrap;html=1;fillColor=#f9f7ed;strokeColor=#36393d;" vertex="1" parent="1">
          <mxGeometry x="-650" y="2310" width="660" height="60" as="geometry" />
        </mxCell>
        <mxCell id="UdNGzA2sQEK_ZWHHFU8I-11" value="&lt;font style=&quot;font-size: 18px;&quot;&gt;原子&lt;/font&gt;" style="text;html=1;strokeColor=none;fillColor=none;align=center;verticalAlign=middle;whiteSpace=wrap;rounded=0;" vertex="1" parent="1">
          <mxGeometry x="-640" y="2330" width="60" height="20" as="geometry" />
        </mxCell>
        <mxCell id="UdNGzA2sQEK_ZWHHFU8I-20" value="&lt;font style=&quot;font-size: 14px;&quot;&gt;部分字段&lt;/font&gt;" style="rounded=1;whiteSpace=wrap;html=1;fillColor=#ffff88;strokeColor=#36393d;" vertex="1" parent="1">
          <mxGeometry x="-575" y="2322.5" width="140" height="35" as="geometry" />
        </mxCell>
        <mxCell id="UdNGzA2sQEK_ZWHHFU8I-22" style="edgeStyle=orthogonalEdgeStyle;rounded=0;orthogonalLoop=1;jettySize=auto;html=1;strokeWidth=2;" edge="1" parent="1" source="UdNGzA2sQEK_ZWHHFU8I-5" target="UdNGzA2sQEK_ZWHHFU8I-20">
          <mxGeometry relative="1" as="geometry" />
        </mxCell>
        <mxCell id="UdNGzA2sQEK_ZWHHFU8I-23" value="&lt;font style=&quot;font-size: 14px;&quot;&gt;均摊&lt;/font&gt;" style="edgeLabel;html=1;align=center;verticalAlign=middle;resizable=0;points=[];" vertex="1" connectable="0" parent="UdNGzA2sQEK_ZWHHFU8I-22">
          <mxGeometry x="-0.1903" relative="1" as="geometry">
            <mxPoint as="offset" />
          </mxGeometry>
        </mxCell>
        <mxCell id="UdNGzA2sQEK_ZWHHFU8I-24" value="&lt;font style=&quot;font-size: 14px;&quot;&gt;部分字段&lt;/font&gt;" style="rounded=1;whiteSpace=wrap;html=1;fillColor=#cdeb8b;strokeColor=#36393d;" vertex="1" parent="1">
          <mxGeometry x="-390" y="2322.5" width="140" height="35" as="geometry" />
        </mxCell>
        <mxCell id="UdNGzA2sQEK_ZWHHFU8I-15" style="edgeStyle=orthogonalEdgeStyle;rounded=0;orthogonalLoop=1;jettySize=auto;html=1;strokeWidth=2;" edge="1" parent="1" source="UdNGzA2sQEK_ZWHHFU8I-4" target="UdNGzA2sQEK_ZWHHFU8I-24">
          <mxGeometry relative="1" as="geometry" />
        </mxCell>
        <mxCell id="UdNGzA2sQEK_ZWHHFU8I-17" value="&lt;font style=&quot;font-size: 14px;&quot;&gt;均摊&lt;/font&gt;" style="edgeLabel;html=1;align=center;verticalAlign=middle;resizable=0;points=[];" vertex="1" connectable="0" parent="UdNGzA2sQEK_ZWHHFU8I-15">
          <mxGeometry x="-0.2725" y="1" relative="1" as="geometry">
            <mxPoint x="-1" as="offset" />
          </mxGeometry>
        </mxCell>
      </root>
    </mxGraphModel>
  </diagram>
</mxfile>
